<?xml version="1.0" encoding="utf-8"?>
<!-- Generator: Adobe Illustrator 16.0.0, SVG Export Plug-In . SVG Version: 6.00 Build 0)  -->
<!DOCTYPE svg PUBLIC "-//W3C//DTD SVG 1.1//EN" "http://www.w3.org/Graphics/SVG/1.1/DTD/svg11.dtd">
<svg version="1.1" id="Calque_1" xmlns="http://www.w3.org/2000/svg" xmlns:xlink="http://www.w3.org/1999/xlink" x="0px" y="0px"
	 width="30px" height="30px" viewBox="0 0 30 30" enable-background="new 0 0 30 30" xml:space="preserve">
<g>
	<path fill-rule="evenodd" clip-rule="evenodd" fill="#FEFEFE" d="M1.196,3.019C1.85,1.487,3.065,0.906,4.667,0.91
		c5.355,0.011,10.71,0.005,16.066,0.004c0.569,0,1.138-0.023,1.696,0.109c0.662,0.293,1.271,0.666,1.752,1.221
		c0.053,0.221,0.144,0.42,0.33,0.563c0.021,0.317,0.186,0.586,0.292,0.875c-0.068,0.145-0.046,0.293-0.011,0.441
		c0.002,0.111,0.004,0.224,0.008,0.334c-0.011,0.257-0.031,0.515-0.031,0.772c-0.002,5.25-0.003,10.501,0.001,15.753
		c0.001,0.498-0.018,0.992-0.15,1.478c-0.732,1.707-2.06,2.268-3.864,2.242c-4.437-0.065-8.873-0.021-13.31-0.023
		c-1.27,0-2.54-0.015-3.809-0.022c-0.237-0.145-0.503-0.188-0.774-0.214c-0.258-0.266-0.578-0.445-0.888-0.638
		c-0.07-0.081-0.141-0.162-0.21-0.243C1.54,23.16,1.316,22.76,1.092,22.358c-0.165-1.06-0.109-2.125-0.109-3.189
		C0.979,14.365,0.985,9.56,0.974,4.757C0.973,4.163,1.051,3.589,1.196,3.019z"/>
	<path fill-rule="evenodd" clip-rule="evenodd" fill="#FEFEFE" d="M5.85,26.682c-0.061-0.556,0.293-0.562,0.7-0.562
		c5.539,0.006,11.078,0.019,16.618-0.006c1.243-0.005,2.273-0.517,2.917-1.65c0.301-0.342,0.335-0.755,0.335-1.185
		c-0.003-5.686-0.003-11.368-0.004-17.052c-0.083-0.524,0.125-0.752,0.662-0.668c0.145,0.023,0.293,0.003,0.441,0.004
		c0.51,0.442,1.019,0.885,1.528,1.328c0.115,0.256,0.232,0.512,0.348,0.769c0.011,0.118-0.011,0.246,0.099,0.335
		c0.006,0.147,0.013,0.294,0.02,0.441c0,0.074,0,0.147-0.001,0.221c0.003,0.147,0.006,0.296,0.01,0.444
		c-0.007,4.117,0.005,8.234-0.024,12.35c-0.013,1.889,0.131,3.78-0.105,5.665c-0.121,0.165-0.192,0.353-0.232,0.551
		c-0.064,0.065-0.144,0.12-0.193,0.194c-0.634,0.947-1.513,1.369-2.659,1.355c-2.431-0.025-4.864-0.013-7.296-0.008
		c-3.427,0.006-6.853,0.017-10.28,0.026c-0.223-0.003-0.446-0.008-0.669-0.012c-0.55-0.379-1.166-0.664-1.648-1.142
		c-0.055-0.211-0.151-0.398-0.337-0.525C6.001,27.266,5.926,26.973,5.85,26.682z"/>
</g>
</svg>
